<?xml version="1.0" encoding="UTF-8"?>
<svg id="Layer_1" data-name="Layer 1" xmlns="http://www.w3.org/2000/svg" viewBox="0 0 200.18 199.82">
  <defs>
    <style>
      .cls-1 {
        fill: #fff;
      }
    </style>
  </defs>
  <path class="cls-1" d="m76.94,78.23c-.32.04-.61,0-.71.11-.5.57-.98,1.16-1.41,1.79-8.69,12.66-18.3,24.53-29.87,34.71-3.67,3.23-7.53,6.31-10.86,9.87-4.96,5.31-10.76,8.52-18.02,9.15-2.47.21-4.91.65-7.37.99,11.37,33.28,45.62,60.27,82.26,62.53.51-20.6-.91-41-5.52-61.13-1.83-7.97-3.02-15.97-1.15-24.18,1.06-4.67,1.24-9.5.9-14.29-.52-7.46-2.74-14.22-8.25-19.54m31.1,119.43c43.92-3.24,74.95-35.68,83.3-62.78-2.47-.29-4.99-.38-7.41-.92-4.08-.91-8.87-.43-12.08-3.26-13.44-11.84-27.23-23.33-38.25-37.68-3.75-4.88-7.38-9.85-10.99-15.06-1.9,1.55-3.24,3.2-4.37,5.08-4.52,7.56-5.5,15.9-4.02,24.26,1.96,11.04,1.17,21.7-1.3,32.56-4.32,18.95-5.36,38.24-4.88,57.8m84.58-65.68c12.41-33.25,5.06-79.28-30.75-108.22-35.36-28.57-85.77-29.11-121.29-1.77C3.41,50.6-5.02,97.45,7.4,131.28c2.6-.62,5.19-1.7,7.81-1.79,8.14-.31,13.83-4.36,18.08-10.94.29-.45.65-.87,1-1.29,4.95-5.91,8.74-12.81,14.61-17.92,4.08-3.56,7.23-7.77,10.02-12.31,2.57-4.17,5.31-8.21,8.61-11.86.75-.83,1.09-1.77,1.34-2.88,1.59-7.32,5.64-11.04,13.05-12.07,2.48-.34,4.98-.51,7.46-.84,1.75-.23,3.13-1.1,3.5-2.92.31-1.55.12-3.81.12-3.81-.3-.05-2.44-.24-2.46-.59-.37-6.38-1.64-13.18.49-19.43,1.52-4.47,5.4-4.6,9.42-4.48,4.88.15,7.37,2.12,8.26,6.91,1.01,5.43.25,11.33-.15,16.75-.04.49-2.13.73-2.42.79,0,0-.37,2.42.11,4.09.54,1.89,2.02,2.65,3.96,2.81,2.6.22,5.19.58,7.78.89,6.88.84,10.44,5.29,12.11,11.51.42,1.55,1.07,2.75,2.01,3.96,2.27,2.92,4.61,5.8,6.57,8.91,3.61,5.71,7.33,11.25,12.57,15.68,2.57,2.17,4.58,4.92,6.56,7.67,4,5.57,8.21,10.97,12.75,16.11,1.92,2.17,4,3.74,7.09,4.12,5.04.63,10.08,1.51,15,3.62m4.53,3.26h-2.85c-19.37,42.56-51.56,65.49-98.63,64.55-35.29-.7-72.79-22.34-89.36-64.73H2.07c.56-1.74,2.28-1.75,3.28-2.83-7.49-22.89-7.22-45.79,1.47-68.36,7.46-19.37,19.88-35,37.11-46.69,34.49-23.38,80.42-22.79,114.05,1.06,32.34,22.93,52.36,67.3,36.84,114.48.43,1.12,2.26.92,2.33,2.52"/>
</svg>